<svg width="31" height="31" viewBox="0 0 31 31" fill="none" xmlns="http://www.w3.org/2000/svg">
    <g clip-path="url(#clip0)">
        <path d="M29.9702 10.1424L17.6128 4.10578C16.5475 3.57314 14.7365 3.57314 13.6712 4.10578L1.02978 10.1424C0.142039 10.5686 0 11.1722 0 11.4918C0 11.8114 0.142039 12.3795 1.02978 12.8412L2.05956 13.3383V19.0199C1.42039 19.2684 0.958763 19.9076 0.958763 20.6178C0.958763 21.328 1.42039 21.9672 2.02405 22.2157L0.426117 27.2936H4.90034L3.30241 22.2157C3.94158 21.9672 4.3677 21.328 4.3677 20.6178C4.3677 19.8721 3.90607 19.2684 3.2669 19.0199V13.942L5.14891 14.8652V22.2513C5.14891 22.3578 5.18442 22.4643 5.25544 22.5708C5.43299 22.7839 8.73539 27.2936 15.4822 27.2936C22.2291 27.2936 25.5315 22.7484 25.6735 22.5708C25.7446 22.4643 25.7801 22.3578 25.7801 22.2513V14.9007L29.9702 12.8412C30.858 12.4151 31 11.8114 31 11.4918C30.9645 11.1722 30.858 10.5686 29.9702 10.1424ZM24.6438 22.0737C24.0756 22.7839 21.0218 26.1928 15.4822 26.1928C9.94273 26.1928 6.88889 22.7839 6.32073 22.0737V15.3624L13.6712 18.8778C14.2039 19.1264 14.9141 19.2684 15.6243 19.2684C16.37 19.2684 17.0802 19.1264 17.6128 18.8423L24.6438 15.3979V22.0737ZM29.4731 11.8469L25.2119 13.942C25.0344 13.942 24.8923 14.013 24.8213 14.155L17.1157 17.8836C16.37 18.2742 14.9141 18.2742 14.1329 17.8836L4.65178 13.3383L15.5533 12.06C15.8729 12.0245 16.0859 11.7404 16.0504 11.4563C16.0149 11.1367 15.7308 10.9237 15.4467 10.9592L2.80527 12.4506L1.52692 11.8469C1.20733 11.7049 1.13631 11.5273 1.13631 11.5273C1.13631 11.4918 1.20733 11.3498 1.52692 11.2077L14.1684 5.13557C14.559 4.95802 15.0916 4.85149 15.6243 4.85149C16.1924 4.85149 16.7606 4.95802 17.1157 5.13557L29.4731 11.1722C29.7927 11.3143 29.8637 11.4563 29.8637 11.5273C29.8637 11.5273 29.7572 11.7049 29.4731 11.8469Z"
              fill="#ff8f20"/>
    </g>
    <defs>
        <clipPath id="clip0">
            <rect width="31" height="31" fill="ff8f20"/>
        </clipPath>
    </defs>
</svg>
