<svg width="31" height="31" viewBox="0 0 31 31" fill="none" xmlns="http://www.w3.org/2000/svg">
    <path d="M28.0939 7.6812L20.598 0.185334C20.4793 0.066662 20.3184 0 20.1506 0H5.79637C4.10093 0 2.72168 1.37938 2.72168 3.07481V27.9253C2.72168 29.6206 4.101 31 5.79643 31H25.2045C26.8999 31 28.2793 29.6207 28.2793 27.9253V8.12858C28.2792 7.96081 28.2125 7.79988 28.0939 7.6812ZM20.7834 2.16025L26.1192 7.49599H22.5929C22.1095 7.49599 21.655 7.30775 21.3133 6.96603C20.9716 6.62436 20.7834 6.16996 20.7834 5.68661V2.16025ZM27.0139 27.9252C27.0139 28.9229 26.2022 29.7346 25.2045 29.7346H5.79637C4.79861 29.7346 3.98693 28.9229 3.98693 27.9252V3.07481C3.98699 2.07706 4.79868 1.26531 5.79637 1.26531H19.5181V5.68649C19.518 6.50781 19.8378 7.27996 20.4185 7.86066C20.9993 8.44143 21.7714 8.76124 22.5928 8.76124H27.0138V27.9252H27.0139Z"
          fill="#ff8f20"/>
    <path d="M16.6561 21.2817H16.3729C16.0235 21.2817 15.7402 21.5649 15.7402 21.9143C15.7402 22.2637 16.0235 22.547 16.3729 22.547H16.6561C17.0055 22.547 17.2888 22.2637 17.2888 21.9143C17.2888 21.5649 17.0055 21.2817 16.6561 21.2817Z"
          fill="#ff8f20"/>
    <path d="M14.3255 21.2817H8.1805C7.83115 21.2817 7.54785 21.5649 7.54785 21.9143C7.54785 22.2637 7.83115 22.547 8.1805 22.547H14.3255C14.6749 22.547 14.9582 22.2637 14.9582 21.9143C14.9582 21.5649 14.6749 21.2817 14.3255 21.2817Z"
          fill="#ff8f20"/>
    <path d="M22.8194 18.3909H8.18148C7.83213 18.3909 7.54883 18.6741 7.54883 19.0235C7.54883 19.3729 7.83213 19.6562 8.18148 19.6562H22.8194C23.1688 19.6562 23.4521 19.3729 23.4521 19.0235C23.4521 18.6741 23.1688 18.3909 22.8194 18.3909Z"
          fill="#ff8f20"/>
    <path d="M22.8194 15.5H8.18148C7.83213 15.5 7.54883 15.7832 7.54883 16.1327C7.54883 16.4821 7.83213 16.7653 8.18148 16.7653H22.8194C23.1688 16.7653 23.4521 16.4821 23.4521 16.1327C23.4521 15.7832 23.1688 15.5 22.8194 15.5Z"
          fill="#ff8f20"/>
    <path d="M22.8194 12.6091H8.18148C7.83213 12.6091 7.54883 12.8924 7.54883 13.2418C7.54883 13.5912 7.83213 13.8744 8.18148 13.8744H22.8194C23.1688 13.8744 23.4521 13.5912 23.4521 13.2418C23.4521 12.8924 23.1688 12.6091 22.8194 12.6091Z"
          fill="#ff8f20"/>
</svg>
